<svg id="svg" version="1.1" xmlns="http://www.w3.org/2000/svg" xmlns:xlink="http://www.w3.org/1999/xlink" width="60" height="60" viewBox="0, 0, 400,400"><g id="svgg"><path id="path0" d="" stroke="none" fill="#000000" fill-rule="evenodd"></path><path id="path1" d="M194.400 38.400 C 194.400 38.620,194.027 38.800,193.571 38.800 C 192.589 38.800,191.600 39.689,191.600 40.571 C 191.600 40.917,191.420 41.200,191.200 41.200 C 190.971 41.200,190.800 42.400,190.800 44.000 L 190.800 46.800 188.600 46.800 C 187.390 46.800,186.400 46.980,186.400 47.200 C 186.400 47.420,186.015 47.600,185.544 47.600 C 184.586 47.600,183.632 48.637,183.613 49.700 C 183.606 50.085,183.420 50.400,183.200 50.400 C 182.958 50.400,182.800 52.133,182.800 54.800 C 182.800 57.467,182.958 59.200,183.200 59.200 C 183.420 59.200,183.600 59.483,183.600 59.829 C 183.600 60.711,184.589 61.600,185.571 61.600 C 186.041 61.600,186.400 61.860,186.400 62.200 C 186.400 62.600,186.800 62.800,187.600 62.800 C 188.533 62.800,188.800 62.978,188.800 63.600 C 188.800 64.044,189.067 64.400,189.400 64.400 C 189.730 64.400,190.000 64.580,190.000 64.800 C 190.000 65.020,190.540 65.200,191.200 65.200 C 192.305 65.200,192.400 65.311,192.400 66.600 L 192.400 68.000 190.200 68.000 C 188.990 68.000,188.000 68.180,188.000 68.400 C 188.000 68.620,187.640 68.800,187.200 68.800 C 186.760 68.800,186.400 69.051,186.400 69.357 C 186.400 69.664,186.130 70.018,185.800 70.145 C 185.470 70.271,185.200 70.651,185.200 70.987 C 185.200 71.324,185.020 71.600,184.800 71.600 C 184.552 71.600,184.400 73.800,184.400 77.400 C 184.400 81.000,184.552 83.200,184.800 83.200 C 185.020 83.200,185.200 83.430,185.200 83.711 C 185.200 84.371,186.634 85.600,187.405 85.600 C 187.732 85.600,188.000 85.827,188.000 86.105 C 188.000 86.383,188.405 86.788,188.900 87.005 C 191.217 88.021,189.646 92.200,186.666 92.948 C 186.080 93.095,185.600 93.392,185.600 93.608 C 185.600 94.292,180.122 94.094,179.855 93.400 C 179.721 93.049,179.121 92.800,178.413 92.800 C 177.746 92.800,177.200 92.620,177.200 92.400 C 177.200 92.180,176.876 92.000,176.480 92.000 C 175.648 92.000,174.800 90.017,174.800 88.072 C 174.800 86.932,174.922 86.800,175.971 86.800 C 176.616 86.800,177.413 86.530,177.743 86.200 C 178.073 85.870,178.536 85.600,178.771 85.600 C 179.043 85.600,179.200 84.351,179.200 82.200 C 179.200 80.200,179.035 78.800,178.800 78.800 C 178.580 78.800,178.400 78.558,178.400 78.261 C 178.400 77.467,177.007 76.000,176.253 76.000 C 175.894 76.000,175.600 75.820,175.600 75.600 C 175.600 75.377,174.513 75.200,173.138 75.200 C 170.778 75.200,170.703 75.170,171.338 74.469 C 171.702 74.066,172.000 73.436,172.000 73.069 C 172.000 72.701,172.180 72.400,172.400 72.400 C 172.642 72.400,172.800 70.667,172.800 68.000 C 172.800 65.333,172.642 63.600,172.400 63.600 C 172.180 63.600,172.000 63.332,172.000 63.005 C 172.000 62.135,170.735 60.800,169.911 60.800 C 169.520 60.800,169.200 60.620,169.200 60.400 C 169.200 60.160,167.600 60.000,165.200 60.000 C 162.800 60.000,161.200 60.160,161.200 60.400 C 161.200 60.620,160.840 60.800,160.400 60.800 C 159.956 60.800,159.600 61.067,159.600 61.400 C 159.600 61.730,159.420 62.000,159.200 62.000 C 158.980 62.000,158.800 61.550,158.800 61.000 C 158.800 60.378,158.573 60.000,158.200 60.000 C 157.870 60.000,157.600 59.732,157.600 59.405 C 157.600 58.634,156.371 57.200,155.711 57.200 C 155.430 57.200,155.200 57.020,155.200 56.800 C 155.200 56.560,153.600 56.400,151.200 56.400 C 148.993 56.400,147.200 56.567,147.200 56.773 C 147.200 56.978,146.840 57.260,146.400 57.400 C 145.590 57.657,145.263 58.800,146.000 58.800 C 146.220 58.800,146.400 59.430,146.400 60.200 C 146.400 60.970,146.580 61.600,146.800 61.600 C 147.020 61.600,147.200 62.050,147.200 62.600 C 147.200 63.150,147.380 63.600,147.600 63.600 C 147.820 63.600,148.000 64.129,148.000 64.776 C 148.000 65.423,148.180 66.064,148.400 66.200 C 148.620 66.336,148.800 66.784,148.800 67.195 C 148.800 67.606,149.070 68.213,149.400 68.543 C 149.730 68.873,150.000 69.516,150.000 69.971 C 150.000 70.427,150.180 70.800,150.400 70.800 C 150.620 70.800,150.800 71.160,150.800 71.600 C 150.800 72.040,150.953 72.400,151.140 72.400 C 151.327 72.400,151.977 73.570,152.585 75.000 C 153.193 76.430,153.850 77.600,154.045 77.600 C 154.240 77.600,154.400 77.865,154.400 78.188 C 154.400 78.511,154.760 79.417,155.200 80.200 C 155.640 80.983,156.000 81.889,156.000 82.212 C 156.000 82.535,156.180 82.800,156.400 82.800 C 156.620 82.800,156.800 83.166,156.800 83.613 C 156.800 84.059,157.070 84.529,157.400 84.655 C 157.730 84.782,158.000 85.316,158.000 85.843 C 158.000 86.369,158.180 86.800,158.400 86.800 C 158.620 86.800,158.800 87.160,158.800 87.600 C 158.800 88.040,158.980 88.400,159.200 88.400 C 159.420 88.400,159.600 88.850,159.600 89.400 C 159.600 89.950,159.780 90.400,160.000 90.400 C 160.220 90.400,160.400 90.940,160.400 91.600 C 160.400 92.260,160.580 92.800,160.800 92.800 C 161.020 92.800,161.200 93.166,161.200 93.613 C 161.200 94.059,161.470 94.529,161.800 94.655 C 162.142 94.787,162.400 95.383,162.400 96.043 C 162.400 96.679,162.580 97.200,162.800 97.200 C 163.020 97.200,163.200 97.650,163.200 98.200 C 163.200 98.750,163.380 99.200,163.600 99.200 C 163.820 99.200,164.000 99.560,164.000 100.000 C 164.000 100.440,164.180 100.800,164.400 100.800 C 164.620 100.800,164.800 101.237,164.800 101.771 C 164.800 102.306,165.070 103.013,165.400 103.343 C 165.730 103.673,166.000 104.226,166.000 104.571 C 166.000 104.917,166.180 105.200,166.400 105.200 C 166.620 105.200,166.800 105.819,166.800 106.576 C 166.800 107.333,166.980 108.064,167.200 108.200 C 167.420 108.336,167.600 108.851,167.600 109.344 C 167.600 111.769,170.722 113.744,171.800 112.000 C 171.936 111.780,172.746 111.600,173.600 111.600 C 174.454 111.600,175.264 111.420,175.400 111.200 C 175.536 110.980,176.614 110.800,177.795 110.800 C 179.171 110.800,180.159 110.584,180.543 110.200 C 180.983 109.760,182.057 109.600,184.571 109.600 C 186.590 109.600,188.000 109.436,188.000 109.200 C 188.000 108.942,192.600 108.800,201.000 108.800 C 209.400 108.800,214.000 108.942,214.000 109.200 C 214.000 109.433,215.317 109.600,217.151 109.600 C 219.464 109.600,220.434 109.760,220.800 110.200 C 221.118 110.583,222.003 110.800,223.249 110.800 C 224.322 110.800,225.200 110.980,225.200 111.200 C 225.200 111.420,225.920 111.600,226.800 111.600 C 227.680 111.600,228.400 111.780,228.400 112.000 C 228.400 112.607,230.379 112.478,231.029 111.829 C 231.343 111.514,231.600 110.524,231.600 109.629 C 231.600 108.733,231.780 108.000,232.000 108.000 C 232.220 108.000,232.400 107.291,232.400 106.424 C 232.400 105.557,232.580 104.736,232.800 104.600 C 233.020 104.464,233.200 103.753,233.200 103.019 C 233.200 102.203,233.433 101.596,233.800 101.455 C 234.151 101.321,234.400 100.721,234.400 100.013 C 234.400 99.346,234.580 98.800,234.800 98.800 C 235.020 98.800,235.200 98.271,235.200 97.624 C 235.200 96.977,235.380 96.336,235.600 96.200 C 235.820 96.064,236.000 95.423,236.000 94.776 C 236.000 94.129,236.180 93.600,236.400 93.600 C 236.620 93.600,236.800 93.060,236.800 92.400 C 236.800 91.740,236.980 91.200,237.200 91.200 C 237.420 91.200,237.600 90.570,237.600 89.800 C 237.600 88.822,237.781 88.400,238.200 88.400 C 238.530 88.400,238.800 88.127,238.800 87.794 C 238.800 86.824,239.766 84.000,240.097 84.000 C 240.264 84.000,240.400 83.651,240.400 83.224 C 240.400 82.797,240.580 82.336,240.800 82.200 C 241.020 82.064,241.200 81.681,241.200 81.348 C 241.200 81.015,241.470 80.473,241.800 80.143 C 242.130 79.813,242.400 79.106,242.400 78.571 C 242.400 78.037,242.580 77.600,242.800 77.600 C 243.020 77.600,243.200 77.240,243.200 76.800 C 243.200 76.360,243.380 76.000,243.600 76.000 C 243.820 76.000,244.000 75.651,244.000 75.224 C 244.000 74.797,244.180 74.336,244.400 74.200 C 244.620 74.064,244.800 73.681,244.800 73.348 C 244.800 72.649,245.743 71.600,246.371 71.600 C 246.607 71.600,246.800 71.232,246.800 70.783 C 246.800 70.334,247.160 69.580,247.600 69.108 C 248.040 68.636,248.400 68.013,248.400 67.725 C 248.400 67.436,248.580 67.200,248.800 67.200 C 249.020 67.200,249.200 66.750,249.200 66.200 C 249.200 65.578,249.427 65.200,249.800 65.200 C 250.133 65.200,250.400 64.844,250.400 64.400 C 250.400 63.960,250.580 63.600,250.800 63.600 C 251.020 63.600,251.200 63.358,251.200 63.061 C 251.200 62.765,251.482 61.958,251.827 61.267 C 252.171 60.576,252.341 59.828,252.203 59.605 C 252.065 59.382,252.143 59.200,252.376 59.200 C 252.612 59.200,252.800 58.400,252.800 57.400 L 252.800 55.600 251.000 55.600 C 250.010 55.600,249.200 55.420,249.200 55.200 C 249.200 54.980,248.660 54.800,248.000 54.800 C 247.340 54.800,246.800 54.980,246.800 55.200 C 246.800 55.429,245.600 55.600,244.000 55.600 C 242.400 55.600,241.200 55.771,241.200 56.000 C 241.200 56.220,240.905 56.400,240.544 56.400 C 239.759 56.400,238.830 57.526,238.813 58.500 C 238.806 58.885,238.620 59.200,238.400 59.200 C 238.180 59.200,237.975 60.235,237.946 61.500 C 237.916 62.765,237.813 63.395,237.718 62.900 C 237.622 62.405,237.377 62.000,237.172 62.000 C 236.967 62.000,236.800 61.730,236.800 61.400 C 236.800 61.067,236.444 60.800,236.000 60.800 C 235.560 60.800,235.200 60.620,235.200 60.400 C 235.200 60.160,233.600 60.000,231.200 60.000 C 228.800 60.000,227.200 60.160,227.200 60.400 C 227.200 60.620,226.880 60.800,226.489 60.800 C 225.665 60.800,224.400 62.135,224.400 63.005 C 224.400 63.332,224.220 63.600,224.000 63.600 C 223.389 63.600,223.482 71.925,224.100 72.615 C 225.735 74.438,225.742 74.400,223.816 74.400 C 222.817 74.400,222.000 74.580,222.000 74.800 C 222.000 75.020,221.627 75.200,221.171 75.200 C 220.110 75.200,219.200 76.110,219.200 77.171 C 219.200 77.627,219.014 78.000,218.786 78.000 C 218.520 78.000,218.413 79.533,218.486 82.300 L 218.600 86.600 220.553 86.724 C 223.717 86.925,224.812 89.624,222.618 91.818 C 221.564 92.872,211.200 93.400,211.200 92.400 C 211.200 92.180,210.782 92.000,210.272 92.000 C 209.374 92.000,207.600 90.405,207.600 89.597 C 207.600 89.379,207.420 89.200,207.200 89.200 C 206.980 89.200,206.800 88.840,206.800 88.400 C 206.800 87.960,206.980 87.600,207.200 87.600 C 207.420 87.600,207.600 87.330,207.600 87.000 C 207.600 86.670,207.780 86.400,208.000 86.400 C 208.220 86.400,208.400 86.105,208.400 85.744 C 208.400 85.010,209.505 84.032,210.356 84.013 C 211.059 83.997,211.971 82.817,211.987 81.900 C 211.994 81.515,212.180 81.200,212.400 81.200 C 212.642 81.200,212.800 79.467,212.800 76.800 C 212.800 74.133,212.642 72.400,212.400 72.400 C 212.180 72.400,212.000 72.117,212.000 71.771 C 212.000 70.889,211.011 70.000,210.029 70.000 C 209.559 70.000,209.200 69.740,209.200 69.400 C 209.200 68.920,208.600 68.800,206.200 68.800 L 203.200 68.800 203.200 67.000 C 203.200 65.267,203.244 65.200,204.400 65.200 C 205.060 65.200,205.600 65.020,205.600 64.800 C 205.600 64.580,206.410 64.400,207.400 64.400 C 208.390 64.400,209.200 64.220,209.200 64.000 C 209.200 63.780,209.585 63.600,210.056 63.600 C 211.014 63.600,211.968 62.563,211.987 61.500 C 211.994 61.115,212.180 60.800,212.400 60.800 C 212.642 60.800,212.800 59.067,212.800 56.400 C 212.800 53.733,212.642 52.000,212.400 52.000 C 212.180 52.000,212.000 51.732,212.000 51.405 C 212.000 50.535,210.735 49.200,209.911 49.200 C 209.520 49.200,209.200 49.020,209.200 48.800 C 209.200 48.580,208.660 48.400,208.000 48.400 C 206.933 48.400,206.800 48.267,206.800 47.200 C 206.800 46.400,206.600 46.000,206.200 46.000 C 205.733 46.000,205.600 45.467,205.600 43.600 C 205.600 42.267,205.422 41.200,205.200 41.200 C 204.980 41.200,204.800 40.917,204.800 40.571 C 204.800 39.763,203.837 38.800,203.029 38.800 C 202.683 38.800,202.400 38.620,202.400 38.400 C 202.400 38.160,200.800 38.000,198.400 38.000 C 196.000 38.000,194.400 38.160,194.400 38.400 M200.328 51.491 C 202.408 53.571,200.788 57.280,197.800 57.280 C 194.787 57.280,193.193 53.570,195.301 51.462 C 196.942 49.821,198.667 49.831,200.328 51.491 M239.029 69.371 C 239.343 69.686,239.600 70.136,239.600 70.371 C 239.600 70.607,239.780 70.800,240.000 70.800 C 240.869 70.800,240.427 74.010,239.418 75.018 C 238.148 76.288,235.655 76.386,234.800 75.200 C 234.483 74.760,233.993 74.400,233.712 74.400 C 232.689 74.400,233.103 71.338,234.300 70.044 C 235.539 68.705,238.011 68.353,239.029 69.371 M161.986 70.787 C 164.470 73.215,162.978 76.798,159.482 76.800 C 156.537 76.800,154.611 72.778,156.800 71.200 C 157.240 70.883,157.600 70.393,157.600 70.112 C 157.600 69.035,160.679 69.509,161.986 70.787 M200.253 97.500 C 202.347 99.935,200.874 103.600,197.800 103.600 C 194.759 103.600,193.278 99.983,195.305 97.508 C 196.573 95.960,198.925 95.956,200.253 97.500 M176.800 100.000 C 177.117 100.440,177.607 100.800,177.888 100.800 C 178.989 100.800,178.486 103.852,177.169 105.169 C 175.852 106.486,172.800 106.989,172.800 105.888 C 172.800 105.607,172.440 105.117,172.000 104.800 C 170.860 103.978,170.914 101.476,172.100 100.210 C 173.289 98.940,175.950 98.821,176.800 100.000 M224.800 100.000 C 225.117 100.440,225.607 100.800,225.888 100.800 C 226.989 100.800,226.486 103.852,225.169 105.169 C 223.852 106.486,220.800 106.989,220.800 105.888 C 220.800 105.607,220.440 105.117,220.000 104.800 C 218.860 103.978,218.914 101.476,220.100 100.210 C 221.289 98.940,223.950 98.821,224.800 100.000 M61.800 207.200 C 61.664 207.420,60.475 207.600,59.158 207.600 C 56.851 207.600,54.800 208.676,54.800 209.887 C 54.800 210.065,54.350 210.548,53.800 210.961 C 52.974 211.582,52.800 212.049,52.800 213.656 L 52.800 215.600 51.200 215.600 C 50.320 215.600,49.600 215.780,49.600 216.000 C 49.600 216.220,49.362 216.400,49.072 216.400 C 48.301 216.400,46.000 218.566,46.000 219.293 C 46.000 219.635,45.730 220.018,45.400 220.145 C 45.070 220.271,44.800 220.730,44.800 221.164 C 44.800 221.598,44.620 222.064,44.400 222.200 C 43.299 222.880,44.415 229.600,45.629 229.600 C 45.833 229.600,46.000 229.788,46.000 230.018 C 46.000 230.561,47.839 232.400,48.382 232.400 C 48.612 232.400,48.800 232.568,48.800 232.773 C 48.800 232.979,49.293 233.204,49.897 233.273 C 50.612 233.356,51.045 233.675,51.143 234.190 C 51.322 235.131,52.328 235.970,53.300 235.987 C 53.719 235.995,54.000 236.308,54.000 236.767 C 54.000 237.188,54.225 237.624,54.500 237.735 C 54.775 237.846,53.785 237.951,52.300 237.968 C 50.788 237.986,49.600 238.176,49.600 238.400 C 49.600 238.620,49.412 238.800,49.182 238.800 C 48.639 238.800,46.800 240.639,46.800 241.182 C 46.800 241.412,46.665 241.601,46.500 241.603 C 45.567 241.613,44.769 245.686,45.600 246.200 C 45.820 246.336,46.000 247.877,46.000 249.624 C 46.000 251.475,46.167 252.800,46.400 252.800 C 46.620 252.800,46.800 253.168,46.800 253.618 C 46.800 254.469,48.453 256.400,49.182 256.400 C 49.412 256.400,49.600 256.580,49.600 256.800 C 49.600 257.020,49.960 257.200,50.400 257.200 C 51.081 257.200,51.200 257.467,51.200 259.000 C 51.200 259.990,51.020 260.800,50.800 260.800 C 50.580 260.800,50.400 261.070,50.400 261.400 C 50.400 261.730,50.130 262.000,49.800 262.000 C 49.470 262.000,49.200 262.180,49.200 262.400 C 49.200 262.620,48.840 262.800,48.400 262.800 C 47.960 262.800,47.600 262.980,47.600 263.200 C 47.600 263.420,46.790 263.600,45.800 263.600 C 44.810 263.600,44.000 263.420,44.000 263.200 C 44.000 262.980,43.010 262.800,41.800 262.800 C 40.590 262.800,39.600 262.620,39.600 262.400 C 39.600 262.180,39.150 262.000,38.600 262.000 C 37.978 262.000,37.600 261.773,37.600 261.400 C 37.600 261.070,37.420 260.800,37.200 260.800 C 36.980 260.800,36.800 259.810,36.800 258.600 L 36.800 256.400 39.000 256.400 L 41.200 256.400 41.200 254.824 C 41.200 253.957,41.380 253.136,41.600 253.000 C 41.820 252.864,42.000 252.234,42.000 251.600 C 42.000 250.966,41.820 250.336,41.600 250.200 C 41.380 250.064,41.200 249.603,41.200 249.176 C 41.200 248.749,41.020 248.400,40.800 248.400 C 40.580 248.400,40.400 248.149,40.400 247.842 C 40.400 247.535,39.759 246.770,38.975 246.142 C 38.191 245.514,37.304 244.775,37.004 244.500 C 36.703 244.225,35.724 244.000,34.829 244.000 C 32.914 244.000,32.899 243.966,34.200 242.562 C 36.612 239.960,35.283 231.320,32.219 229.682 C 29.198 228.067,28.613 227.907,27.375 228.354 C 26.698 228.599,25.719 228.800,25.200 228.800 C 24.627 228.800,23.736 229.369,22.928 230.250 C 21.762 231.524,21.600 231.597,21.600 230.850 C 21.600 230.383,21.464 230.000,21.298 230.000 C 21.131 230.000,20.737 229.415,20.422 228.700 C 19.675 227.005,19.045 226.400,18.029 226.400 C 17.559 226.400,17.200 226.140,17.200 225.800 C 17.200 225.379,16.775 225.200,15.774 225.200 C 14.989 225.200,13.973 225.000,13.516 224.755 C 12.670 224.302,10.056 224.849,8.900 225.721 C 7.853 226.510,8.890 234.000,10.046 234.000 C 10.241 234.000,10.400 234.630,10.400 235.400 C 10.400 236.170,10.580 236.800,10.800 236.800 C 11.020 236.800,11.200 237.329,11.200 237.976 C 11.200 238.623,11.357 239.250,11.548 239.368 C 11.740 239.486,12.003 240.113,12.132 240.760 C 12.272 241.460,12.697 242.040,13.184 242.195 C 13.761 242.378,14.000 242.797,14.000 243.627 C 14.000 244.272,14.180 244.800,14.400 244.800 C 14.620 244.800,14.800 245.023,14.800 245.296 C 14.800 245.962,17.663 251.764,18.075 251.933 C 18.254 252.007,18.400 252.412,18.400 252.833 C 18.400 253.255,18.580 253.600,18.800 253.600 C 19.020 253.600,19.200 254.050,19.200 254.600 C 19.200 255.150,19.380 255.600,19.600 255.600 C 19.820 255.600,20.000 255.960,20.000 256.400 C 20.000 256.840,20.180 257.200,20.400 257.200 C 20.620 257.200,20.800 257.637,20.800 258.171 C 20.800 258.706,21.070 259.413,21.400 259.743 C 21.730 260.073,22.000 260.806,22.000 261.371 C 22.000 261.937,22.180 262.400,22.400 262.400 C 22.620 262.400,22.800 262.929,22.800 263.576 C 22.800 264.223,22.980 264.864,23.200 265.000 C 23.420 265.136,23.600 265.676,23.600 266.200 C 23.600 266.724,23.780 267.264,24.000 267.400 C 24.220 267.536,24.400 268.087,24.400 268.624 C 24.400 269.161,24.580 269.600,24.800 269.600 C 25.020 269.600,25.200 269.887,25.200 270.238 C 25.200 270.589,25.496 271.444,25.857 272.138 C 26.219 272.832,26.669 273.713,26.857 274.095 C 27.046 274.477,27.200 275.422,27.200 276.195 C 27.200 276.968,27.380 277.600,27.600 277.600 C 27.820 277.600,28.013 278.185,28.029 278.900 C 28.102 282.151,32.035 283.911,34.431 281.765 C 34.818 281.419,35.942 281.200,37.331 281.200 C 38.579 281.200,39.600 281.020,39.600 280.800 C 39.600 280.559,41.240 280.400,43.720 280.400 C 46.352 280.400,48.010 280.230,48.312 279.928 C 48.674 279.566,48.998 279.571,49.708 279.951 C 50.653 280.456,58.646 280.363,63.741 279.786 C 65.251 279.615,66.237 279.677,66.521 279.961 C 66.792 280.232,68.833 280.400,71.856 280.400 C 74.689 280.400,76.857 280.569,77.000 280.800 C 77.136 281.020,78.387 281.200,79.781 281.200 C 81.664 281.200,82.374 281.354,82.545 281.800 C 82.689 282.177,83.301 282.400,84.193 282.400 C 84.973 282.400,85.968 282.580,86.405 282.800 C 86.842 283.020,87.558 283.380,87.995 283.600 C 90.709 284.966,92.800 283.419,92.800 280.043 C 92.800 279.166,92.980 278.336,93.200 278.200 C 93.420 278.064,93.600 277.353,93.600 276.619 C 93.600 275.803,93.833 275.196,94.200 275.055 C 94.530 274.929,94.800 274.427,94.800 273.941 C 94.800 273.010,95.456 270.678,96.049 269.505 C 96.242 269.123,96.400 268.358,96.400 267.805 C 96.400 267.252,96.580 266.800,96.800 266.800 C 97.020 266.800,97.200 266.279,97.200 265.643 C 97.200 264.983,97.458 264.387,97.800 264.255 C 98.130 264.129,98.400 263.755,98.400 263.425 C 98.400 263.095,98.760 262.183,99.200 261.400 C 99.640 260.617,100.000 259.632,100.000 259.211 C 100.000 258.791,100.180 258.336,100.400 258.200 C 100.620 258.064,100.800 257.603,100.800 257.176 C 100.800 256.749,100.980 256.400,101.200 256.400 C 101.420 256.400,101.600 256.099,101.600 255.731 C 101.600 255.364,101.840 254.779,102.134 254.431 C 102.428 254.084,102.896 253.170,103.174 252.400 C 103.839 250.563,104.411 249.162,104.847 248.305 C 105.041 247.923,105.200 246.978,105.200 246.205 C 105.200 245.223,105.381 244.800,105.800 244.800 C 106.133 244.800,106.400 244.444,106.400 244.000 C 106.400 243.467,106.667 243.200,107.200 243.200 C 107.644 243.200,108.000 242.933,108.000 242.600 C 108.000 242.270,108.180 242.000,108.400 242.000 C 108.620 242.000,108.800 241.640,108.800 241.200 C 108.800 240.760,108.980 240.400,109.200 240.400 C 109.420 240.400,109.600 240.040,109.600 239.600 C 109.600 239.156,109.867 238.800,110.200 238.800 C 110.530 238.800,110.800 238.530,110.800 238.200 C 110.800 237.870,110.980 237.600,111.200 237.600 C 111.420 237.600,111.600 237.240,111.600 236.800 C 111.600 236.360,111.780 236.000,112.000 236.000 C 112.220 236.000,112.400 235.640,112.400 235.200 C 112.400 234.760,112.580 234.400,112.800 234.400 C 113.020 234.400,113.200 234.207,113.200 233.971 C 113.200 233.736,113.470 233.273,113.800 232.943 C 114.130 232.613,114.400 231.726,114.400 230.971 C 114.400 230.217,114.580 229.600,114.800 229.600 C 115.020 229.600,115.200 229.060,115.200 228.400 C 115.200 227.600,115.000 227.200,114.600 227.200 C 114.270 227.200,114.000 227.020,114.000 226.800 C 114.000 226.569,112.741 226.400,111.024 226.400 C 109.387 226.400,107.936 226.220,107.800 226.000 C 107.225 225.070,104.070 225.675,102.582 227.000 C 102.334 227.220,101.652 227.758,101.066 228.195 C 100.480 228.632,100.000 229.217,100.000 229.495 C 100.000 229.773,99.831 230.000,99.624 230.000 C 99.417 230.000,99.192 230.634,99.124 231.408 L 99.000 232.816 97.917 231.808 C 95.306 229.376,86.000 231.007,86.000 233.897 C 86.000 234.174,85.833 234.400,85.629 234.400 C 84.871 234.400,84.000 236.983,84.000 239.229 C 84.000 241.395,84.925 243.991,85.700 243.997 C 85.865 243.999,86.000 244.180,86.000 244.400 C 86.000 244.620,85.370 244.800,84.600 244.800 C 83.622 244.800,83.200 244.981,83.200 245.400 C 83.200 245.730,82.880 246.000,82.488 246.000 C 82.097 246.000,81.512 246.382,81.188 246.849 C 80.865 247.316,80.375 247.933,80.100 248.220 C 79.825 248.508,79.600 249.465,79.600 250.348 C 79.600 251.231,79.420 252.064,79.200 252.200 C 77.679 253.140,79.223 257.200,81.101 257.200 C 81.811 257.200,82.410 257.449,82.545 257.800 C 82.671 258.130,83.051 258.400,83.387 258.400 C 84.352 258.400,84.356 262.101,83.392 263.065 C 82.768 263.689,80.560 263.783,80.200 263.200 C 80.061 262.975,78.129 262.800,75.776 262.800 C 73.259 262.800,71.600 262.641,71.600 262.400 C 71.600 262.180,71.150 262.000,70.600 262.000 C 69.877 262.000,69.600 261.785,69.600 261.224 C 69.600 260.797,69.420 260.336,69.200 260.200 C 67.895 259.394,70.332 254.864,72.100 254.809 C 72.265 254.804,72.400 254.620,72.400 254.401 C 72.400 254.181,73.030 253.334,73.800 252.518 C 74.690 251.574,75.227 250.590,75.273 249.817 C 75.443 246.979,75.068 243.769,74.455 242.817 C 73.348 241.098,71.895 239.600,71.334 239.600 C 71.040 239.600,70.800 239.420,70.800 239.200 C 70.800 238.980,70.271 238.800,69.624 238.800 C 68.977 238.800,68.336 238.620,68.200 238.400 C 68.064 238.180,67.333 238.000,66.576 238.000 C 65.325 238.000,65.200 237.895,65.200 236.843 C 65.200 235.455,65.733 235.200,68.633 235.200 C 69.825 235.200,70.800 235.020,70.800 234.800 C 70.800 234.580,71.160 234.400,71.600 234.400 C 72.040 234.400,72.400 234.207,72.400 233.971 C 72.400 233.490,73.390 232.400,73.827 232.400 C 74.434 232.400,75.175 230.941,75.187 229.724 C 75.194 229.022,75.380 228.336,75.600 228.200 C 77.367 227.108,74.304 219.237,72.100 219.207 C 71.825 219.203,71.600 219.020,71.600 218.800 C 71.600 218.580,71.150 218.400,70.600 218.400 C 69.877 218.400,69.600 218.185,69.600 217.624 C 69.600 217.197,69.420 216.736,69.200 216.600 C 68.980 216.464,68.800 215.283,68.800 213.976 C 68.800 210.423,63.174 204.977,61.800 207.200 M331.200 207.200 C 331.200 207.420,330.868 207.600,330.462 207.600 C 329.570 207.600,328.400 208.809,328.400 209.731 C 328.400 210.099,328.220 210.400,328.000 210.400 C 327.774 210.400,327.600 211.533,327.600 213.000 L 327.600 215.600 325.400 215.600 C 324.190 215.600,323.200 215.780,323.200 216.000 C 323.200 216.220,322.880 216.400,322.489 216.400 C 321.665 216.400,320.400 217.735,320.400 218.605 C 320.400 218.932,320.220 219.200,320.000 219.200 C 319.758 219.200,319.600 220.933,319.600 223.600 C 319.600 226.267,319.758 228.000,320.000 228.000 C 320.220 228.000,320.400 228.268,320.400 228.595 C 320.400 229.465,321.665 230.800,322.489 230.800 C 322.880 230.800,323.200 230.980,323.200 231.200 C 323.200 231.420,323.830 231.600,324.600 231.600 C 325.733 231.600,326.000 231.752,326.000 232.400 C 326.000 232.840,326.180 233.200,326.400 233.200 C 326.620 233.200,326.800 233.470,326.800 233.800 C 326.800 234.200,327.200 234.400,328.000 234.400 C 329.067 234.400,329.200 234.533,329.200 235.600 C 329.200 236.774,329.157 236.800,327.187 236.800 C 325.768 236.800,325.107 236.977,324.945 237.400 C 324.818 237.730,324.451 238.000,324.129 238.000 C 323.375 238.000,322.400 238.975,322.400 239.729 C 322.400 240.051,322.130 240.418,321.800 240.545 C 321.306 240.734,321.200 241.768,321.200 246.387 C 321.200 251.110,321.295 252.000,321.800 252.000 C 322.133 252.000,322.400 252.356,322.400 252.800 C 322.400 253.240,322.580 253.600,322.800 253.600 C 323.020 253.600,323.200 253.870,323.200 254.200 C 323.200 254.533,323.556 254.800,324.000 254.800 C 324.440 254.800,324.800 254.937,324.800 255.105 C 324.800 255.273,325.205 255.588,325.700 255.805 C 327.271 256.494,326.954 260.800,325.332 260.800 C 325.040 260.800,324.800 261.070,324.800 261.400 C 324.800 261.769,324.425 262.000,323.824 262.000 C 323.287 262.000,322.736 262.180,322.600 262.400 C 322.464 262.620,321.103 262.800,319.576 262.800 C 317.992 262.800,316.800 262.628,316.800 262.400 C 316.800 262.180,316.279 262.000,315.643 262.000 C 314.983 262.000,314.387 261.742,314.255 261.400 C 314.129 261.070,313.659 260.800,313.213 260.800 C 312.675 260.800,312.400 260.537,312.400 260.024 C 312.400 259.597,312.220 259.136,312.000 259.000 C 310.967 258.362,311.553 255.600,312.720 255.600 C 315.524 255.600,315.993 254.955,315.997 251.100 C 315.999 249.031,315.836 247.600,315.600 247.600 C 315.380 247.600,315.200 247.332,315.200 247.005 C 315.200 246.135,313.935 244.800,313.111 244.800 C 312.720 244.800,312.400 244.620,312.400 244.400 C 312.400 244.180,311.410 244.000,310.200 244.000 C 308.990 244.000,308.000 243.820,308.000 243.600 C 308.000 243.380,308.180 243.200,308.400 243.200 C 308.620 243.200,308.800 242.750,308.800 242.200 C 308.800 241.650,308.980 241.200,309.200 241.200 C 309.442 241.200,309.600 239.467,309.600 236.800 C 309.600 234.133,309.442 232.400,309.200 232.400 C 308.980 232.400,308.800 232.117,308.800 231.771 C 308.800 230.981,307.843 230.000,307.071 230.000 C 306.749 230.000,306.382 229.730,306.255 229.400 C 306.073 228.925,305.232 228.800,302.213 228.800 C 299.090 228.800,298.400 228.909,298.400 229.400 C 298.400 229.773,298.022 230.000,297.400 230.000 C 296.850 230.000,296.400 230.180,296.400 230.400 C 296.400 230.620,296.220 230.800,296.000 230.800 C 295.780 230.800,295.600 230.350,295.600 229.800 C 295.600 229.250,295.420 228.800,295.200 228.800 C 294.980 228.800,294.800 228.440,294.800 228.000 C 294.800 227.556,294.533 227.200,294.200 227.200 C 293.870 227.200,293.600 227.020,293.600 226.800 C 293.600 226.580,293.240 226.400,292.800 226.400 C 292.356 226.400,292.000 226.133,292.000 225.800 C 292.000 225.307,291.289 225.200,288.000 225.200 C 284.861 225.200,284.000 225.319,284.000 225.753 C 284.000 226.058,283.640 226.401,283.200 226.516 C 282.388 226.728,282.067 227.600,282.800 227.600 C 283.020 227.600,283.200 228.219,283.200 228.976 C 283.200 229.733,283.380 230.464,283.600 230.600 C 283.820 230.736,284.000 231.197,284.000 231.624 C 284.000 232.051,284.180 232.400,284.400 232.400 C 284.620 232.400,284.800 232.946,284.800 233.613 C 284.800 234.321,285.049 234.921,285.400 235.055 C 285.742 235.187,286.000 235.783,286.000 236.443 C 286.000 237.079,286.180 237.600,286.400 237.600 C 286.620 237.600,286.800 238.050,286.800 238.600 C 286.800 239.150,286.980 239.600,287.200 239.600 C 287.420 239.600,287.600 239.960,287.600 240.400 C 287.600 240.840,287.743 241.200,287.918 241.200 C 288.093 241.200,288.570 242.010,288.978 243.000 C 289.387 243.990,289.873 244.800,290.060 244.800 C 290.247 244.800,290.400 245.160,290.400 245.600 C 290.400 246.040,290.580 246.400,290.800 246.400 C 291.020 246.400,291.200 246.665,291.200 246.988 C 291.200 247.311,291.560 248.217,292.000 249.000 C 292.440 249.783,292.800 250.695,292.800 251.025 C 292.800 251.355,293.070 251.729,293.400 251.855 C 293.730 251.982,294.000 252.426,294.000 252.843 C 294.000 253.259,294.180 253.600,294.400 253.600 C 294.620 253.600,294.800 254.050,294.800 254.600 C 294.800 255.150,294.980 255.600,295.200 255.600 C 295.420 255.600,295.600 255.960,295.600 256.400 C 295.600 256.840,295.780 257.200,296.000 257.200 C 296.220 257.200,296.400 257.650,296.400 258.200 C 296.400 258.750,296.580 259.200,296.800 259.200 C 297.020 259.200,297.200 259.656,297.200 260.213 C 297.200 260.769,297.470 261.329,297.800 261.455 C 298.130 261.582,298.400 262.116,298.400 262.643 C 298.400 263.169,298.580 263.600,298.800 263.600 C 299.020 263.600,299.200 264.140,299.200 264.800 C 299.200 265.460,299.380 266.000,299.600 266.000 C 299.820 266.000,300.000 266.450,300.000 267.000 C 300.000 267.550,300.180 268.000,300.400 268.000 C 300.620 268.000,300.800 268.360,300.800 268.800 C 300.800 269.244,301.067 269.600,301.400 269.600 C 301.819 269.600,302.000 270.022,302.000 271.000 C 302.000 271.770,302.180 272.400,302.400 272.400 C 302.620 272.400,302.800 272.850,302.800 273.400 C 302.800 273.950,302.980 274.400,303.200 274.400 C 303.420 274.400,303.600 274.929,303.600 275.576 C 303.600 276.223,303.780 276.864,304.000 277.000 C 304.220 277.136,304.400 277.678,304.400 278.205 C 304.400 280.309,305.192 281.200,307.064 281.200 C 308.019 281.200,308.800 281.020,308.800 280.800 C 308.800 280.580,309.509 280.400,310.376 280.400 C 311.243 280.400,312.064 280.220,312.200 280.000 C 312.336 279.780,313.506 279.600,314.800 279.600 C 316.094 279.600,317.264 279.420,317.400 279.200 C 317.536 278.980,319.257 278.800,321.224 278.800 C 324.136 278.800,324.800 278.689,324.800 278.200 C 324.800 277.679,326.511 277.600,337.800 277.600 C 349.089 277.600,350.800 277.679,350.800 278.200 C 350.800 278.686,351.442 278.800,354.176 278.800 C 356.033 278.800,357.664 278.980,357.800 279.200 C 357.936 279.420,358.926 279.600,360.000 279.600 C 361.074 279.600,362.064 279.780,362.200 280.000 C 362.336 280.220,363.067 280.400,363.824 280.400 C 364.581 280.400,365.200 280.580,365.200 280.800 C 365.200 281.407,367.179 281.278,367.829 280.629 C 368.143 280.314,368.400 279.324,368.400 278.429 C 368.400 277.533,368.580 276.800,368.800 276.800 C 369.020 276.800,369.200 276.074,369.200 275.187 C 369.200 274.123,369.404 273.497,369.800 273.345 C 370.138 273.215,370.400 272.619,370.400 271.981 C 370.400 271.357,370.580 270.736,370.800 270.600 C 371.020 270.464,371.200 269.834,371.200 269.200 C 371.200 268.566,371.380 267.936,371.600 267.800 C 371.820 267.664,372.000 267.023,372.000 266.376 C 372.000 265.729,372.180 265.200,372.400 265.200 C 372.620 265.200,372.800 264.671,372.800 264.024 C 372.800 263.377,372.980 262.736,373.200 262.600 C 373.420 262.464,373.600 261.823,373.600 261.176 C 373.600 260.397,373.803 260.000,374.200 260.000 C 374.619 260.000,374.800 259.578,374.800 258.600 C 374.800 257.830,374.980 257.200,375.200 257.200 C 375.420 257.200,375.600 256.761,375.600 256.224 C 375.600 255.687,375.780 255.136,376.000 255.000 C 376.220 254.864,376.400 254.313,376.400 253.776 C 376.400 253.239,376.580 252.800,376.800 252.800 C 377.020 252.800,377.200 252.459,377.200 252.043 C 377.200 251.626,377.470 251.182,377.800 251.055 C 378.130 250.929,378.400 250.470,378.400 250.036 C 378.400 249.602,378.580 249.136,378.800 249.000 C 379.020 248.864,379.200 248.313,379.200 247.776 C 379.200 247.239,379.380 246.800,379.600 246.800 C 379.820 246.800,380.000 246.350,380.000 245.800 C 380.000 245.250,380.180 244.800,380.400 244.800 C 380.620 244.800,380.800 244.440,380.800 244.000 C 380.800 243.560,380.980 243.200,381.200 243.200 C 381.420 243.200,381.600 242.750,381.600 242.200 C 381.600 241.650,381.793 241.200,382.029 241.200 C 382.666 241.200,383.600 240.147,383.600 239.429 C 383.600 239.083,383.746 238.800,383.925 238.800 C 384.104 238.800,384.498 238.170,384.800 237.400 C 385.102 236.630,385.483 236.000,385.645 236.000 C 386.015 236.000,387.200 233.666,387.200 232.939 C 387.200 232.642,387.336 232.400,387.502 232.400 C 387.928 232.400,388.876 230.147,388.944 228.977 C 388.975 228.440,389.135 228.000,389.300 228.000 C 389.465 228.000,389.600 227.190,389.600 226.200 L 389.600 224.400 388.024 224.400 C 387.157 224.400,386.336 224.220,386.200 224.000 C 386.064 223.780,385.423 223.600,384.776 223.600 C 384.129 223.600,383.600 223.780,383.600 224.000 C 383.600 224.226,382.467 224.400,381.000 224.400 C 379.533 224.400,378.400 224.574,378.400 224.800 C 378.400 225.020,378.080 225.200,377.689 225.200 C 376.865 225.200,375.600 226.535,375.600 227.405 C 375.600 227.732,375.420 228.000,375.200 228.000 C 374.980 228.000,374.800 228.630,374.800 229.400 C 374.800 230.378,374.619 230.800,374.200 230.800 C 373.870 230.800,373.600 230.620,373.600 230.400 C 373.600 230.180,373.240 230.000,372.800 230.000 C 372.356 230.000,372.000 229.733,372.000 229.400 C 372.000 228.907,371.289 228.800,368.000 228.800 C 364.711 228.800,364.000 228.907,364.000 229.400 C 364.000 229.730,363.732 230.000,363.405 230.000 C 362.634 230.000,361.200 231.229,361.200 231.889 C 361.200 232.170,361.020 232.400,360.800 232.400 C 360.189 232.400,360.282 240.725,360.900 241.415 C 362.535 243.238,362.542 243.200,360.616 243.200 C 359.617 243.200,358.800 243.380,358.800 243.600 C 358.800 243.820,358.468 244.000,358.062 244.000 C 357.170 244.000,356.000 245.209,356.000 246.131 C 356.000 246.499,355.820 246.800,355.600 246.800 C 355.358 246.800,355.200 248.533,355.200 251.200 L 355.200 255.600 357.229 255.600 C 360.280 255.600,361.851 258.778,359.600 260.400 C 359.160 260.717,358.800 261.207,358.800 261.488 C 358.800 261.879,357.519 262.000,353.400 262.000 C 348.867 262.000,348.000 261.904,348.000 261.400 C 348.000 261.044,347.633 260.800,347.097 260.800 C 346.011 260.800,343.600 258.309,343.600 257.187 C 343.600 256.754,343.780 256.400,344.000 256.400 C 344.220 256.400,344.400 256.130,344.400 255.800 C 344.400 255.470,344.580 255.200,344.800 255.200 C 345.020 255.200,345.200 254.884,345.200 254.498 C 345.200 254.089,345.744 253.555,346.500 253.222 C 348.101 252.516,348.800 251.850,348.800 251.029 C 348.800 250.683,348.980 250.400,349.200 250.400 C 349.443 250.400,349.600 248.600,349.600 245.800 C 349.600 243.000,349.443 241.200,349.200 241.200 C 348.980 241.200,348.800 240.917,348.800 240.571 C 348.800 239.763,347.837 238.800,347.029 238.800 C 346.683 238.800,346.400 238.620,346.400 238.400 C 346.400 238.167,345.067 238.000,343.200 238.000 L 340.000 238.000 340.000 236.200 C 340.000 234.463,340.042 234.400,341.213 234.400 C 341.921 234.400,342.521 234.151,342.655 233.800 C 342.812 233.393,343.450 233.200,344.643 233.200 C 345.609 233.200,346.400 233.020,346.400 232.800 C 346.400 232.580,346.683 232.400,347.029 232.400 C 347.911 232.400,348.800 231.411,348.800 230.429 C 348.800 229.973,348.980 229.600,349.200 229.600 C 349.442 229.600,349.600 227.867,349.600 225.200 C 349.600 222.533,349.442 220.800,349.200 220.800 C 348.980 220.800,348.800 220.517,348.800 220.171 C 348.800 219.381,347.843 218.400,347.071 218.400 C 346.749 218.400,346.382 218.130,346.255 217.800 C 346.121 217.449,345.521 217.200,344.813 217.200 C 343.732 217.200,343.600 217.069,343.600 216.000 C 343.600 215.340,343.420 214.800,343.200 214.800 C 342.980 214.800,342.800 213.810,342.800 212.600 C 342.800 210.911,342.661 210.400,342.200 210.400 C 341.860 210.400,341.600 210.041,341.600 209.571 C 341.600 208.589,340.711 207.600,339.829 207.600 C 339.483 207.600,339.200 207.420,339.200 207.200 C 339.200 206.960,337.600 206.800,335.200 206.800 C 332.800 206.800,331.200 206.960,331.200 207.200 M336.800 220.000 C 337.117 220.440,337.607 220.800,337.888 220.800 C 338.989 220.800,338.486 223.852,337.169 225.169 C 335.852 226.486,332.800 226.989,332.800 225.888 C 332.800 225.607,332.440 225.117,332.000 224.800 C 330.860 223.978,330.914 221.476,332.100 220.210 C 333.289 218.940,335.950 218.821,336.800 220.000 M62.800 221.800 C 62.800 222.350,62.980 222.800,63.200 222.800 C 63.757 222.800,63.700 224.235,63.100 225.290 C 62.292 226.711,61.710 227.200,60.829 227.200 C 60.373 227.200,60.000 227.382,60.000 227.603 C 60.000 227.844,59.644 227.804,59.115 227.503 C 56.286 225.893,55.822 223.712,57.800 221.315 C 58.659 220.274,62.800 220.676,62.800 221.800 M375.600 238.112 C 375.600 238.393,375.960 238.883,376.400 239.200 C 378.549 240.749,376.668 244.800,373.800 244.800 C 370.932 244.800,369.051 240.749,371.200 239.200 C 371.640 238.883,372.000 238.393,372.000 238.112 C 372.000 237.772,372.605 237.600,373.800 237.600 C 374.995 237.600,375.600 237.772,375.600 238.112 M299.018 239.782 C 300.288 241.052,300.386 243.545,299.200 244.400 C 298.760 244.717,298.400 245.207,298.400 245.488 C 298.400 245.828,297.795 246.000,296.600 246.000 C 295.267 246.000,294.800 245.844,294.800 245.400 C 294.800 245.070,294.607 244.800,294.371 244.800 C 293.512 244.800,292.800 243.622,292.800 242.200 C 292.800 240.778,293.512 239.600,294.371 239.600 C 294.607 239.600,294.800 239.420,294.800 239.200 C 294.800 238.331,298.010 238.773,299.018 239.782 M23.200 240.000 C 23.200 240.220,23.470 240.400,23.800 240.400 C 24.648 240.400,24.808 244.434,23.972 244.733 C 23.767 244.807,23.600 245.122,23.600 245.433 C 23.600 245.745,23.240 246.000,22.800 246.000 C 22.360 246.000,22.000 246.180,22.000 246.400 C 22.000 246.620,21.730 246.800,21.400 246.800 C 21.070 246.800,20.800 246.620,20.800 246.400 C 20.800 246.180,20.440 246.000,20.000 246.000 C 19.556 246.000,19.200 245.733,19.200 245.400 C 19.200 245.070,19.020 244.800,18.800 244.800 C 18.580 244.800,18.400 244.440,18.400 244.000 C 18.400 243.546,18.133 243.200,17.784 243.200 C 17.116 243.200,17.147 243.145,19.082 240.908 C 20.193 239.623,23.200 238.960,23.200 240.000 M99.200 240.000 C 99.200 240.220,99.565 240.400,100.010 240.400 C 100.590 240.400,100.888 240.741,101.060 241.600 C 101.192 242.260,101.458 242.800,101.650 242.800 C 102.436 242.800,101.921 244.417,100.769 245.569 C 98.993 247.345,95.600 247.121,95.600 245.229 C 95.600 244.993,95.420 244.800,95.200 244.800 C 94.980 244.800,94.800 244.260,94.800 243.600 C 94.800 242.940,94.980 242.400,95.200 242.400 C 95.420 242.400,95.600 242.145,95.600 241.834 C 95.600 241.522,96.140 241.028,96.800 240.736 C 97.460 240.444,98.000 240.069,98.000 239.902 C 98.000 239.736,98.270 239.600,98.600 239.600 C 98.930 239.600,99.200 239.780,99.200 240.000 M337.169 266.431 C 338.486 267.748,338.989 270.800,337.888 270.800 C 337.607 270.800,337.117 271.160,336.800 271.600 C 335.945 272.786,333.452 272.688,332.182 271.418 C 330.912 270.148,330.814 267.655,332.000 266.800 C 332.440 266.483,332.800 265.993,332.800 265.712 C 332.800 264.611,335.852 265.114,337.169 266.431 M60.917 267.700 C 61.509 267.975,61.995 268.515,61.997 268.900 C 61.999 269.285,62.180 269.600,62.400 269.600 C 62.620 269.600,62.800 269.870,62.800 270.200 C 62.800 270.530,62.620 270.800,62.400 270.800 C 62.180 270.800,62.000 271.132,62.000 271.537 C 62.000 271.969,61.421 272.586,60.600 273.028 C 59.830 273.443,59.200 273.921,59.200 274.091 C 59.200 274.530,58.454 274.474,57.883 273.993 C 57.617 273.769,56.977 273.237,56.460 272.811 C 53.446 270.328,57.231 265.988,60.917 267.700 M313.200 268.400 C 313.200 268.620,313.393 268.800,313.629 268.800 C 314.519 268.800,315.200 270.000,315.200 271.571 C 315.200 272.467,315.020 273.200,314.800 273.200 C 314.580 273.200,314.400 273.470,314.400 273.800 C 314.400 274.130,314.130 274.400,313.800 274.400 C 313.470 274.400,313.200 274.580,313.200 274.800 C 313.200 275.020,312.467 275.200,311.571 275.200 C 310.000 275.200,308.800 274.519,308.800 273.629 C 308.800 273.393,308.620 273.200,308.400 273.200 C 307.585 273.200,307.966 270.007,308.900 269.010 C 309.830 268.016,313.200 267.538,313.200 268.400 M361.200 268.400 C 361.200 268.620,361.393 268.800,361.629 268.800 C 362.519 268.800,363.200 270.000,363.200 271.571 C 363.200 272.467,363.020 273.200,362.800 273.200 C 362.580 273.200,362.400 273.470,362.400 273.800 C 362.400 274.130,362.130 274.400,361.800 274.400 C 361.470 274.400,361.200 274.580,361.200 274.800 C 361.200 275.020,360.467 275.200,359.571 275.200 C 358.000 275.200,356.800 274.519,356.800 273.629 C 356.800 273.393,356.620 273.200,356.400 273.200 C 355.585 273.200,355.966 270.007,356.900 269.010 C 357.830 268.016,361.200 267.538,361.200 268.400 M37.000 269.200 C 37.136 269.420,37.597 269.600,38.024 269.600 C 38.567 269.600,38.800 269.876,38.800 270.520 C 38.800 271.026,38.969 271.611,39.175 271.820 C 39.777 272.431,38.734 275.200,37.902 275.200 C 37.516 275.200,37.200 275.380,37.200 275.600 C 37.200 275.820,36.660 276.000,36.000 276.000 C 35.340 276.000,34.800 275.820,34.800 275.600 C 34.800 275.380,34.517 275.200,34.171 275.200 C 33.195 275.200,32.400 274.172,32.400 272.908 C 32.400 271.297,33.269 269.607,34.100 269.603 C 34.485 269.601,34.800 269.420,34.800 269.200 C 34.800 268.980,35.239 268.800,35.776 268.800 C 36.313 268.800,36.864 268.980,37.000 269.200 M84.145 270.200 C 84.271 270.530,84.696 270.801,85.087 270.803 C 86.545 270.810,87.432 275.026,86.229 276.229 C 85.914 276.543,85.284 276.800,84.829 276.800 C 84.359 276.800,84.000 277.060,84.000 277.400 C 84.000 277.730,83.820 278.000,83.600 278.000 C 83.380 278.000,83.200 277.730,83.200 277.400 C 83.200 277.060,82.841 276.800,82.371 276.800 C 81.389 276.800,80.400 275.911,80.400 275.029 C 80.400 274.683,80.220 274.400,80.000 274.400 C 79.780 274.400,79.600 274.130,79.600 273.800 C 79.600 273.470,79.780 273.200,80.000 273.200 C 80.220 273.200,80.400 272.917,80.400 272.571 C 80.400 271.758,81.365 270.800,82.184 270.800 C 82.537 270.800,82.929 270.530,83.055 270.200 C 83.182 269.870,83.427 269.600,83.600 269.600 C 83.773 269.600,84.018 269.870,84.145 270.200 " stroke="none" fill="#000000" fill-rule="evenodd"></path><path id="path2" d="" stroke="none" fill="#000000" fill-rule="evenodd"></path><path id="path3" d="" stroke="none" fill="#000000" fill-rule="evenodd"></path><path id="path4" d="" stroke="none" fill="#000000" fill-rule="evenodd"></path></g></svg>